:SAMPLES-PER-SECOND 30
:FULLY-SPECIFIED
:DEGREES
152
root  -25.232 38.9089 1.3102 -130.5 -83.9675 122.404
RightUpLeg  -13.5755 3.23478 -11.9199
RightLeg  67.4395 5.45871 13.6594
RightFoot  -0.756969 -1.26818 13.6368
RightToes  -3.0268e-009 0 -3.6325e-017
Spine  8.87093 1.77278 -9.75685
Spine1  5.493 0.168961 0.873938
HEad  -18.3789 1.8731 0.6936
LeftShoulder1  -0.640858 5.05566 -35.1113
LeftArm  4.58792 5.68278 -39.7023
LeftForeArm  35.5665 -12.896 -8.55049
LeftHand  -0.323639 11.5167 -4.7255
RightShoulder  -1.41545 -6.97246 34.2493
RightArm  19.5265 -1.78437 43.77
RightForeArm  23.1807 6.42655 9.15873
RightHand  -0.0465994 0.894453 -0.952844
LeftUpLeg  -6.61395 5.94798 -5.35592
LeftLeg  23.5621 1.72362 1.11666
LeftFoot  -9.02414 -0.00493198 2.93454
LeftToes  2.52475e-009 -1.26109e-010 3.16044e-011
153
root  -26.2404 39.1448 1.54064 -137.96 -84.0856 130.081
RightUpLeg  -17.851 1.53555 -10.7912
RightLeg  66.1619 4.39534 10.2254
RightFoot  -0.632124 -1.15478 12.2275
RightToes  -3.0268e-009 0 -3.6325e-017
Spine  9.13743 1.61891 -9.41327
Spine1  4.96203 0.0393628 1.12199
HEad  -18.9938 2.16766 0.62458
LeftShoulder1  -0.683592 5.15432 -35.2166
LeftArm  9.31012 4.08792 -40.7077
LeftForeArm  30.1182 -16.1488 -7.13076
LeftHand  -0.294548 11.3515 -4.33742
RightShoulder  -1.40211 -6.94265 34.2138
RightArm  20.8063 -6.20532 41.7973
RightForeArm  24.2679 7.70463 9.03026
RightHand  -0.00177587 0.893978 -0.137146
LeftUpLeg  -4.0748 6.33025 -4.88401
LeftLeg  21.6503 1.87388 0.896721
LeftFoot  -9.82686 0.0192633 3.00452
LeftToes  2.52475e-009 -1.26109e-010 3.16044e-011
154
root  -27.2129 39.3072 1.7411 -142.598 -84.5064 135.13
RightUpLeg  -21.2436 0.388921 -9.3843
RightLeg  61.8204 4.99257 9.49369
RightFoot  -1.56592 -1.0369 11.9596
RightToes  -3.0268e-009 0 -3.6325e-017
Spine  9.50533 1.10445 -9.43315
Spine1  4.06511 -0.532873 1.86896
HEad  -19.1324 3.94385 1.36499
LeftShoulder1  -0.771498 5.36393 -35.2672
LeftArm  14.4865 3.59259 -41.1706
LeftForeArm  23.2887 -20.8744 -4.75416
LeftHand  -0.252984 10.9116 -3.86615
RightShoulder  -1.39131 -6.92949 34.0588
RightArm  22.3846 -10.0043 39.916
RightForeArm  22.417 8.82601 8.94001
RightHand  -0.0478972 1.17478 -0.904554
LeftUpLeg  -2.05829 6.51509 -4.35746
LeftLeg  20.1401 1.69329 0.590778
LeftFoot  -10.7298 0.0480812 3.1159
LeftToes  2.52475e-009 -1.26109e-010 3.16044e-011
155
root  -28.201 39.4272 1.91242 -146.049 -85.3347 138.566
RightUpLeg  -22.8209 -0.625968 -7.88141
RightLeg  54.5542 6.71869 9.65038
RightFoot  -2.42154 -0.928806 11.6578
RightToes  -3.0268e-009 0 -3.6325e-017
Spine  9.79973 0.480764 -8.98486
Spine1  3.97009 -1.1038 2.21253
HEad  -19.5033 3.94697 2.19558
LeftShoulder1  -0.690111 5.19434 -34.6479
LeftArm  13.9349 3.14228 -41.7381
LeftForeArm  22.1493 -25.0687 -4.04104
LeftHand  -0.140841 9.33366 -2.45837
RightShoulder  -1.37145 -6.89282 33.9126
RightArm  22.2547 -13.4092 38.3597
RightForeArm  20.5511 9.83334 8.40207
RightHand  -0.112965 2.48363 -1.87283
LeftUpLeg  0.361771 6.90487 -3.5378
LeftLeg  18.774 0.789785 0.0943199
LeftFoot  -11.6902 0.0814661 3.56661
LeftToes  2.52475e-009 -1.26109e-010 3.16044e-011
156
root  -29.1873 39.4618 2.0503 -145.14 -85.8617 137.657
RightUpLeg  -23.5899 -1.44598 -6.98345
RightLeg  45.5579 8.37318 8.76706
RightFoot  -2.85029 -0.865675 11.3653
RightToes  -3.0268e-009 0 -3.6325e-017
Spine  10.0683 -0.00951709 -9.2913
Spine1  3.94998 -1.70236 3.15147
HEad  -20.0428 4.56582 1.65922
LeftShoulder1  -0.695942 5.20065 -34.8288
LeftArm  11.4952 2.19693 -41.4395
LeftForeArm  23.2372 -28.6695 -4.93293
LeftHand  -0.0679737 8.27909 -0.920259
RightShoulder  -1.35196 -6.86516 33.6713
RightArm  21.6387 -16.0755 36.9599
RightForeArm  20.5905 10.5916 7.7664
RightHand  -0.0125033 2.10266 -0.373794
LeftUpLeg  2.54148 7.02861 -3.29698
LeftLeg  17.7874 0.212337 -0.144506
LeftFoot  -12.7737 0.125826 3.966
LeftToes  2.52475e-009 -1.26109e-010 3.16044e-011
157
root  -30.1749 39.4512 2.16218 -139.123 -86.214 131.768
RightUpLeg  -23.6183 -2.19833 -6.52072
RightLeg  35.1141 8.92854 6.49054
RightFoot  -2.86254 -0.860961 11.315
RightToes  -3.0268e-009 0 -3.6325e-017
Spine  9.85498 -0.411253 -9.3643
Spine1  4.42065 -2.04656 3.45875
HEad  -20.6648 4.60393 1.71087
LeftShoulder1  -0.737026 5.29988 -34.8504
LeftArm  10.2612 0.612384 -41.2604
LeftForeArm  24.193 -31.6048 -5.57272
LeftHand  -0.0653719 8.38154 -0.734798
RightShoulder  -1.38096 -6.94239 33.6182
RightArm  20.3568 -18.0033 36.0113
RightForeArm  20.0968 10.6676 7.28358
RightHand  0.0127064 1.77617 0.0454488
LeftUpLeg  4.5573 6.86662 -3.5097
LeftLeg  16.7602 0.0935343 -0.125671
LeftFoot  -13.9371 0.172846 3.92242
LeftToes  2.52475e-009 -1.26109e-010 3.16044e-011
158
root  -31.1688 39.4204 2.23775 -129.646 -86.3638 122.788
RightUpLeg  -23.1962 -1.85997 -6.55739
RightLeg  23.7973 7.93547 3.6846
RightFoot  -2.7565 -0.845599 10.9889
RightToes  -3.0268e-009 0 -3.6325e-017
Spine  9.3094 -0.619969 -9.55748
Spine1  4.79223 -2.19676 3.84361
HEad  -20.9665 4.44173 1.70845
LeftShoulder1  -0.710236 5.2479 -34.5307
LeftArm  9.08031 -0.534349 -41.4442
LeftForeArm  24.9241 -34.0463 -6.13756
LeftHand  -0.0541084 8.59993 -0.19755
RightShoulder  -1.39218 -6.96528 33.675
RightArm  18.1602 -19.3367 35.5366
RightForeArm  20.4226 9.79894 6.89933
RightHand  -0.00343642 1.37762 -0.185215
LeftUpLeg  6.26844 6.68016 -3.85338
LeftLeg  15.5499 -0.268015 -0.274063
LeftFoot  -14.7509 0.211371 4.12117
LeftToes  2.52475e-009 -1.26109e-010 3.16044e-011
159
root  -32.2092 39.3502 2.29687 -122.611 -85.9678 116.3
RightUpLeg  -22.5297 -1.55617 -6.6902
RightLeg  13.1146 7.54057 1.43731
RightFoot  -2.57217 -0.743522 9.43965
RightToes  -3.0268e-009 0 -3.6325e-017
Spine  8.86192 -0.555231 -9.42149
Spine1  4.67304 -1.93277 3.55317
HEad  -20.3727 3.10541 1.77018
LeftShoulder1  -0.650402 5.12934 -33.8516
LeftArm  7.84608 -1.05066 -41.9697
LeftForeArm  25.7583 -35.3127 -6.41983
LeftHand  -0.0300854 7.91605 0.544828
RightShoulder  -1.43855 -7.04342 34.094
RightArm  16.7612 -20.1778 35.062
RightForeArm  21.5288 8.71487 6.64232
RightHand  0.00782752 0.966464 0.0391386
LeftUpLeg  8.15811 6.3758 -4.55435
LeftLeg  14.0142 -0.0301985 -0.277783
LeftFoot  -15.5452 0.248597 4.22778
LeftToes  2.52475e-009 -1.26109e-010 3.16044e-011
160
root  -33.3042 39.2335 2.34732 -111.617 -85.6937 105.579
RightUpLeg  -21.4849 -5.2206 -5.48573
RightLeg  4.19039 10.6532 -0.418207
RightFoot  -2.89398 -0.63305 8.31008
RightToes  -3.0268e-009 0 -3.6325e-017
Spine  8.40509 -0.548852 -9.06144
Spine1  4.98071 -1.82623 3.44281
HEad  -20.4494 1.97633 1.11091
LeftShoulder1  -0.642598 5.10338 -34.0058
LeftArm  7.32296 -1.80597 -42.0332
LeftForeArm  26.0595 -36.0268 -6.59326
LeftHand  -0.0375858 8.66803 0.325444
RightShoulder  -1.47751 -7.12505 34.2537
RightArm  16.3619 -20.3645 34.7854
RightForeArm  21.5169 7.90217 6.6005
RightHand  0.00681273 1.67062 -0.0513087
LeftUpLeg  10.3385 6.24957 -5.05198
LeftLeg  12.7412 -0.532723 -0.43124
LeftFoot  -16.5504 0.289047 4.16756
LeftToes  2.52475e-009 -1.26109e-010 3.16044e-011
161
root  -34.4986 39.0399 2.321 -97.0091 -85.5798 91.0925
RightUpLeg  -20.4164 -6.68126 -5.3263
RightLeg  -1.58971 10.5623 -0.95751
RightFoot  -4.24186 -0.599723 9.14253
RightToes  -3.0268e-009 0 -3.6325e-017
Spine  7.47117 -0.667407 -9.15128
Spine1  6.07087 -2.0444 3.95927
HEad  -20.5193 0.685484 0.81179
LeftShoulder1  -0.623726 5.05458 -34.0167
LeftArm  6.83252 -1.89358 -42.3314
LeftForeArm  26.067 -36.4316 -6.70183
LeftHand  -0.0338355 8.63711 0.457345
RightShoulder  -1.46212 -7.07602 34.352
RightArm  15.8675 -19.546 35.0016
RightForeArm  21.8071 7.10206 6.53805
RightHand  -0.0109963 0.921969 -0.302759
LeftUpLeg  12.5059 6.19069 -5.06622
LeftLeg  12.2283 -1.71397 -0.432966
LeftFoot  -18.0401 0.345093 4.03989
LeftToes  2.52475e-009 -1.26109e-010 3.16044e-011
